# xmcd CD database file
#
# Track frame offsets:
#	150
#	4215
#	17771
#	32688
#	50151
#	62757
#	77059
#	94106
#	107320
#	126670
#	132275
#	136978
#	153827
#	170446
#	184346
#	193922
#	197555
#	209986
#	223925
#	238948
#	256608
#
# Disc length: 3519 seconds
#
# Revision: 0
# Processed by: cddbd v1.5.2PL0 Copyright (c) Steve Scherf et al.
# Submitted via: CDex 1.70beta2
#
DISCID=390dbd15
DTITLE=Woody Herman - The Radio Years 1940-41
DYEAR=1998
DGENRE=Jazz
TTITLE0=Blue Prelude
TTITLE1=Chopping Wood
TTITLE2=Faithful Forever
TTITLE3=South of the Border
TTITLE4=Midnight Echoes
TTITLE5=In an old Dutch Garden
TTITLE6=Woodchopper'sBall
TTITLE7=It's a blue World
TTITLE8=Blues on Parade
TTITLE9=Blue Prelude
TTITLE10=Blue Flame
TTITLE11=Gentleman Jim
TTITLE12=These Things you left me
TTITLE13=Jughead
TTITLE14=Rockin'  Chair
TTITLE15=Blue Flame
TTITLE16=Chip's Boogie Woogie
TTITLE17=What' cha know Joe
TTITLE18=Sorrento
TTITLE19=Fur Trapper'sm Ball
TTITLE20=Blue Flame
EXTD=YEAR: 1998
EXTT0=
EXTT1=
EXTT2=
EXTT3=
EXTT4=
EXTT5=
EXTT6=
EXTT7=
EXTT8=
EXTT9=
EXTT10=
EXTT11=
EXTT12=
EXTT13=
EXTT14=
EXTT15=
EXTT16=
EXTT17=
EXTT18=
EXTT19=
EXTT20=
PLAYORDER=
